<mxfile host="app.diagrams.net" agent="Mozilla/5.0 (Windows NT 10.0; Win64; x64; rv:139.0) Gecko/20100101 Firefox/139.0" version="27.1.6" pages="2">
  <diagram name="Page-1" id="AjH8Eutsoj1-70T_I6zw">
    <mxGraphModel dx="786" dy="471" grid="1" gridSize="10" guides="1" tooltips="1" connect="1" arrows="1" fold="1" page="1" pageScale="1" pageWidth="3300" pageHeight="4681" math="0" shadow="0">
      <root>
        <mxCell id="0" />
        <mxCell id="1" parent="0" />
        <mxCell id="1lMx6m45hG9wNmRPeV4w-3" style="edgeStyle=orthogonalEdgeStyle;rounded=0;orthogonalLoop=1;jettySize=auto;html=1;exitX=1;exitY=0.5;exitDx=0;exitDy=0;entryX=0;entryY=0.5;entryDx=0;entryDy=0;" edge="1" parent="1" source="1lMx6m45hG9wNmRPeV4w-1" target="1lMx6m45hG9wNmRPeV4w-2">
          <mxGeometry relative="1" as="geometry" />
        </mxCell>
        <mxCell id="1lMx6m45hG9wNmRPeV4w-1" value="data&#xa;Raw&#xa;Measurements" style="rectangle;fillColor=#fff2cc;strokeColor=#d6b656;" name="data" vertex="1" parent="1">
          <mxGeometry x="340" y="230" width="100" height="50" as="geometry" />
        </mxCell>
        <mxCell id="1lMx6m45hG9wNmRPeV4w-5" style="edgeStyle=orthogonalEdgeStyle;rounded=0;orthogonalLoop=1;jettySize=auto;html=1;exitX=1;exitY=0.5;exitDx=0;exitDy=0;entryX=0.5;entryY=0;entryDx=0;entryDy=0;" edge="1" parent="1" source="1lMx6m45hG9wNmRPeV4w-2" target="1lMx6m45hG9wNmRPeV4w-4">
          <mxGeometry relative="1" as="geometry" />
        </mxCell>
        <mxCell id="1lMx6m45hG9wNmRPeV4w-2" value="transform" style="rounded=1;whiteSpace=wrap;html=1;arcSize=50;fillColor=#f8cecc;strokeColor=#b85450;" name="transform" vertex="1" parent="1">
          <mxGeometry x="520" y="230" width="100" height="50" as="geometry" />
        </mxCell>
        <mxCell id="1lMx6m45hG9wNmRPeV4w-8" style="edgeStyle=orthogonalEdgeStyle;rounded=0;orthogonalLoop=1;jettySize=auto;html=1;exitX=0;exitY=0.5;exitDx=0;exitDy=0;entryX=0.5;entryY=0;entryDx=0;entryDy=0;" edge="1" parent="1" source="1lMx6m45hG9wNmRPeV4w-4" target="1lMx6m45hG9wNmRPeV4w-6">
          <mxGeometry relative="1" as="geometry" />
        </mxCell>
        <mxCell id="1lMx6m45hG9wNmRPeV4w-4" value="data&#xa;Extracted&#xa;Features" style="rectangle;fillColor=#fff2cc;strokeColor=#d6b656;" name="data" vertex="1" parent="1">
          <mxGeometry x="650" y="330" width="100" height="50" as="geometry" />
        </mxCell>
        <mxCell id="1lMx6m45hG9wNmRPeV4w-10" style="edgeStyle=orthogonalEdgeStyle;rounded=0;orthogonalLoop=1;jettySize=auto;html=1;exitX=0.5;exitY=1;exitDx=0;exitDy=0;entryX=0.5;entryY=0;entryDx=0;entryDy=0;" edge="1" parent="1" source="1lMx6m45hG9wNmRPeV4w-6" target="1lMx6m45hG9wNmRPeV4w-9">
          <mxGeometry relative="1" as="geometry" />
        </mxCell>
        <mxCell id="1lMx6m45hG9wNmRPeV4w-6" value="generate:train" style="rounded=1;whiteSpace=wrap;html=1;arcSize=50;fillColor=#e1d5e7;strokeColor=#9673a6;" name="generate:train" vertex="1" parent="1">
          <mxGeometry x="520" y="430" width="100" height="50" as="geometry" />
        </mxCell>
        <mxCell id="1lMx6m45hG9wNmRPeV4w-12" style="edgeStyle=orthogonalEdgeStyle;rounded=0;orthogonalLoop=1;jettySize=auto;html=1;exitX=0.5;exitY=1;exitDx=0;exitDy=0;entryX=0.5;entryY=0;entryDx=0;entryDy=0;" edge="1" parent="1" source="1lMx6m45hG9wNmRPeV4w-9" target="1lMx6m45hG9wNmRPeV4w-11">
          <mxGeometry relative="1" as="geometry" />
        </mxCell>
        <mxCell id="1lMx6m45hG9wNmRPeV4w-9" value="model:dynamic&#xa;Boosting Model" style="shape=hexagon;perimeter=hexagonPerimeter2;fillColor=#b0e3e6;strokeColor=#0e8088;" name="model" vertex="1" parent="1">
          <mxGeometry x="510" y="560" width="120" height="50" as="geometry" />
        </mxCell>
        <mxCell id="1lMx6m45hG9wNmRPeV4w-16" style="edgeStyle=orthogonalEdgeStyle;rounded=0;orthogonalLoop=1;jettySize=auto;html=1;exitX=0.5;exitY=1;exitDx=0;exitDy=0;entryX=0.5;entryY=0;entryDx=0;entryDy=0;" edge="1" parent="1" source="1lMx6m45hG9wNmRPeV4w-11" target="1lMx6m45hG9wNmRPeV4w-15">
          <mxGeometry relative="1" as="geometry" />
        </mxCell>
        <mxCell id="1lMx6m45hG9wNmRPeV4w-11" value="infer:deduce" style="rounded=1;whiteSpace=wrap;html=1;arcSize=50;fillColor=#bac8d3;strokeColor=#23445d;" name="infer:deduce" vertex="1" parent="1">
          <mxGeometry x="520" y="690" width="100" height="50" as="geometry" />
        </mxCell>
        <mxCell id="1lMx6m45hG9wNmRPeV4w-14" style="edgeStyle=orthogonalEdgeStyle;rounded=0;orthogonalLoop=1;jettySize=auto;html=1;entryX=0;entryY=0.5;entryDx=0;entryDy=0;" edge="1" parent="1" source="1lMx6m45hG9wNmRPeV4w-13" target="1lMx6m45hG9wNmRPeV4w-11">
          <mxGeometry relative="1" as="geometry" />
        </mxCell>
        <mxCell id="1lMx6m45hG9wNmRPeV4w-13" value="data&#xa;Measurements" style="rectangle;fillColor=#fff2cc;strokeColor=#d6b656;" name="data" vertex="1" parent="1">
          <mxGeometry x="340" y="690" width="100" height="50" as="geometry" />
        </mxCell>
        <mxCell id="1lMx6m45hG9wNmRPeV4w-18" style="edgeStyle=orthogonalEdgeStyle;rounded=0;orthogonalLoop=1;jettySize=auto;html=1;exitX=0.5;exitY=1;exitDx=0;exitDy=0;entryX=0.5;entryY=0;entryDx=0;entryDy=0;" edge="1" parent="1" source="1lMx6m45hG9wNmRPeV4w-15" target="1lMx6m45hG9wNmRPeV4w-17">
          <mxGeometry relative="1" as="geometry" />
        </mxCell>
        <mxCell id="1lMx6m45hG9wNmRPeV4w-15" value="symbol&#xa;Health Score and&#xa;Epilepsy Prediction" style="rectangle;fillColor=#dae8fc;strokeColor=#6c8ebf;" name="symbol" vertex="1" parent="1">
          <mxGeometry x="520" y="820" width="100" height="50" as="geometry" />
        </mxCell>
        <mxCell id="1lMx6m45hG9wNmRPeV4w-24" style="edgeStyle=orthogonalEdgeStyle;rounded=0;orthogonalLoop=1;jettySize=auto;html=1;exitX=0;exitY=0.5;exitDx=0;exitDy=0;entryX=1;entryY=0.5;entryDx=0;entryDy=0;" edge="1" parent="1" source="1lMx6m45hG9wNmRPeV4w-17" target="1lMx6m45hG9wNmRPeV4w-22">
          <mxGeometry relative="1" as="geometry" />
        </mxCell>
        <mxCell id="1lMx6m45hG9wNmRPeV4w-17" value="infer:deduce" style="rounded=1;whiteSpace=wrap;html=1;arcSize=50;fillColor=#bac8d3;strokeColor=#23445d;" name="infer:deduce" vertex="1" parent="1">
          <mxGeometry x="520" y="950" width="100" height="50" as="geometry" />
        </mxCell>
        <mxCell id="1lMx6m45hG9wNmRPeV4w-19" value="symbol&#xa;Fuzzy Rules" style="rectangle;fillColor=#dae8fc;strokeColor=#6c8ebf;" name="symbol" vertex="1" parent="1">
          <mxGeometry x="700" y="950" width="100" height="50" as="geometry" />
        </mxCell>
        <mxCell id="1lMx6m45hG9wNmRPeV4w-21" value="&lt;div&gt;error&lt;/div&gt;&lt;div&gt;&amp;lt;--&lt;/div&gt;" style="text;html=1;align=center;verticalAlign=middle;whiteSpace=wrap;rounded=0;dashed=1;fillColor=#f5f5f5;fontColor=#333333;strokeColor=#666666;strokeWidth=2;" name="text" vertex="1" parent="1">
          <mxGeometry x="620" y="960" width="80" height="30" as="geometry" />
        </mxCell>
        <mxCell id="1lMx6m45hG9wNmRPeV4w-22" value="symbol&#xa;Diagnosis and&#xa;Treatment" style="rectangle;fillColor=#dae8fc;strokeColor=#6c8ebf;" name="symbol" vertex="1" parent="1">
          <mxGeometry x="340" y="950" width="100" height="50" as="geometry" />
        </mxCell>
      </root>
    </mxGraphModel>
  </diagram>
  <diagram name="Copy of Page-1" id="TNp3OCGZbhO7dPcXZJ0K">
    <mxGraphModel dx="1123" dy="673" grid="1" gridSize="10" guides="1" tooltips="1" connect="1" arrows="1" fold="1" page="1" pageScale="1" pageWidth="3300" pageHeight="4681" math="0" shadow="0">
      <root>
        <mxCell id="T-h4fnzZas3nuQTRg1Mm-0" />
        <mxCell id="T-h4fnzZas3nuQTRg1Mm-1" parent="T-h4fnzZas3nuQTRg1Mm-0" />
        <mxCell id="T-h4fnzZas3nuQTRg1Mm-2" style="edgeStyle=orthogonalEdgeStyle;rounded=0;orthogonalLoop=1;jettySize=auto;html=1;exitX=1;exitY=0.5;exitDx=0;exitDy=0;entryX=0;entryY=0.5;entryDx=0;entryDy=0;" edge="1" parent="T-h4fnzZas3nuQTRg1Mm-1" source="T-h4fnzZas3nuQTRg1Mm-3" target="T-h4fnzZas3nuQTRg1Mm-5">
          <mxGeometry relative="1" as="geometry" />
        </mxCell>
        <mxCell id="T-h4fnzZas3nuQTRg1Mm-3" value="data&#xa;Raw&#xa;Measurements" style="rectangle;fillColor=#fff2cc;strokeColor=#d6b656;" name="data" vertex="1" parent="T-h4fnzZas3nuQTRg1Mm-1">
          <mxGeometry x="340" y="230" width="100" height="50" as="geometry" />
        </mxCell>
        <mxCell id="T-h4fnzZas3nuQTRg1Mm-4" style="edgeStyle=orthogonalEdgeStyle;rounded=0;orthogonalLoop=1;jettySize=auto;html=1;exitX=1;exitY=0.5;exitDx=0;exitDy=0;entryX=0.5;entryY=0;entryDx=0;entryDy=0;" edge="1" parent="T-h4fnzZas3nuQTRg1Mm-1" source="T-h4fnzZas3nuQTRg1Mm-5" target="T-h4fnzZas3nuQTRg1Mm-7">
          <mxGeometry relative="1" as="geometry" />
        </mxCell>
        <mxCell id="T-h4fnzZas3nuQTRg1Mm-5" value="transform" style="rounded=1;whiteSpace=wrap;html=1;arcSize=50;fillColor=#f8cecc;strokeColor=#b85450;" name="transform" vertex="1" parent="T-h4fnzZas3nuQTRg1Mm-1">
          <mxGeometry x="520" y="230" width="100" height="50" as="geometry" />
        </mxCell>
        <mxCell id="T-h4fnzZas3nuQTRg1Mm-6" style="edgeStyle=orthogonalEdgeStyle;rounded=0;orthogonalLoop=1;jettySize=auto;html=1;exitX=0;exitY=0.5;exitDx=0;exitDy=0;entryX=0.5;entryY=0;entryDx=0;entryDy=0;" edge="1" parent="T-h4fnzZas3nuQTRg1Mm-1" source="T-h4fnzZas3nuQTRg1Mm-7" target="T-h4fnzZas3nuQTRg1Mm-9">
          <mxGeometry relative="1" as="geometry" />
        </mxCell>
        <mxCell id="T-h4fnzZas3nuQTRg1Mm-7" value="data&#xa;Extracted&#xa;Features" style="rectangle;fillColor=#fff2cc;strokeColor=#d6b656;" name="data" vertex="1" parent="T-h4fnzZas3nuQTRg1Mm-1">
          <mxGeometry x="650" y="330" width="100" height="50" as="geometry" />
        </mxCell>
        <mxCell id="T-h4fnzZas3nuQTRg1Mm-8" style="edgeStyle=orthogonalEdgeStyle;rounded=0;orthogonalLoop=1;jettySize=auto;html=1;exitX=0.5;exitY=1;exitDx=0;exitDy=0;entryX=0.5;entryY=0;entryDx=0;entryDy=0;" edge="1" parent="T-h4fnzZas3nuQTRg1Mm-1" source="T-h4fnzZas3nuQTRg1Mm-9" target="T-h4fnzZas3nuQTRg1Mm-11">
          <mxGeometry relative="1" as="geometry" />
        </mxCell>
        <mxCell id="T-h4fnzZas3nuQTRg1Mm-9" value="generate:train" style="rounded=1;whiteSpace=wrap;html=1;arcSize=50;fillColor=#e1d5e7;strokeColor=#9673a6;" name="generate:train" vertex="1" parent="T-h4fnzZas3nuQTRg1Mm-1">
          <mxGeometry x="520" y="430" width="100" height="50" as="geometry" />
        </mxCell>
        <mxCell id="T-h4fnzZas3nuQTRg1Mm-10" style="edgeStyle=orthogonalEdgeStyle;rounded=0;orthogonalLoop=1;jettySize=auto;html=1;exitX=0.5;exitY=1;exitDx=0;exitDy=0;entryX=0.5;entryY=0;entryDx=0;entryDy=0;" edge="1" parent="T-h4fnzZas3nuQTRg1Mm-1" source="T-h4fnzZas3nuQTRg1Mm-11" target="T-h4fnzZas3nuQTRg1Mm-13">
          <mxGeometry relative="1" as="geometry" />
        </mxCell>
        <mxCell id="T-h4fnzZas3nuQTRg1Mm-11" value="model:dynamic&#xa;Boosting Model" style="shape=hexagon;perimeter=hexagonPerimeter2;fillColor=#b0e3e6;strokeColor=#0e8088;" name="model" vertex="1" parent="T-h4fnzZas3nuQTRg1Mm-1">
          <mxGeometry x="510" y="560" width="120" height="50" as="geometry" />
        </mxCell>
        <mxCell id="T-h4fnzZas3nuQTRg1Mm-12" style="edgeStyle=orthogonalEdgeStyle;rounded=0;orthogonalLoop=1;jettySize=auto;html=1;exitX=0.5;exitY=1;exitDx=0;exitDy=0;entryX=0.5;entryY=0;entryDx=0;entryDy=0;" edge="1" parent="T-h4fnzZas3nuQTRg1Mm-1" source="T-h4fnzZas3nuQTRg1Mm-13" target="T-h4fnzZas3nuQTRg1Mm-17">
          <mxGeometry relative="1" as="geometry" />
        </mxCell>
        <mxCell id="T-h4fnzZas3nuQTRg1Mm-13" value="infer:deduce" style="rounded=1;whiteSpace=wrap;html=1;arcSize=50;fillColor=#bac8d3;strokeColor=#23445d;" name="infer:deduce" vertex="1" parent="T-h4fnzZas3nuQTRg1Mm-1">
          <mxGeometry x="520" y="690" width="100" height="50" as="geometry" />
        </mxCell>
        <mxCell id="T-h4fnzZas3nuQTRg1Mm-14" style="edgeStyle=orthogonalEdgeStyle;rounded=0;orthogonalLoop=1;jettySize=auto;html=1;entryX=0;entryY=0.5;entryDx=0;entryDy=0;" edge="1" parent="T-h4fnzZas3nuQTRg1Mm-1" source="T-h4fnzZas3nuQTRg1Mm-15" target="T-h4fnzZas3nuQTRg1Mm-13">
          <mxGeometry relative="1" as="geometry" />
        </mxCell>
        <mxCell id="T-h4fnzZas3nuQTRg1Mm-15" value="data&#xa;Measurements" style="rectangle;fillColor=#fff2cc;strokeColor=#d6b656;" name="data" vertex="1" parent="T-h4fnzZas3nuQTRg1Mm-1">
          <mxGeometry x="340" y="690" width="100" height="50" as="geometry" />
        </mxCell>
        <mxCell id="T-h4fnzZas3nuQTRg1Mm-16" style="edgeStyle=orthogonalEdgeStyle;rounded=0;orthogonalLoop=1;jettySize=auto;html=1;exitX=0.5;exitY=1;exitDx=0;exitDy=0;entryX=0.5;entryY=0;entryDx=0;entryDy=0;" edge="1" parent="T-h4fnzZas3nuQTRg1Mm-1" source="T-h4fnzZas3nuQTRg1Mm-17" target="T-h4fnzZas3nuQTRg1Mm-19">
          <mxGeometry relative="1" as="geometry" />
        </mxCell>
        <mxCell id="T-h4fnzZas3nuQTRg1Mm-17" value="symbol&#xa;Health Score and&#xa;Epilepsy Prediction" style="rectangle;fillColor=#dae8fc;strokeColor=#6c8ebf;" name="symbol" vertex="1" parent="T-h4fnzZas3nuQTRg1Mm-1">
          <mxGeometry x="520" y="820" width="100" height="50" as="geometry" />
        </mxCell>
        <mxCell id="T-h4fnzZas3nuQTRg1Mm-18" style="edgeStyle=orthogonalEdgeStyle;rounded=0;orthogonalLoop=1;jettySize=auto;html=1;exitX=0;exitY=0.5;exitDx=0;exitDy=0;entryX=1;entryY=0.5;entryDx=0;entryDy=0;" edge="1" parent="T-h4fnzZas3nuQTRg1Mm-1" source="T-h4fnzZas3nuQTRg1Mm-19" target="T-h4fnzZas3nuQTRg1Mm-22">
          <mxGeometry relative="1" as="geometry" />
        </mxCell>
        <mxCell id="T-h4fnzZas3nuQTRg1Mm-19" value="infer:deduce" style="rounded=1;whiteSpace=wrap;html=1;arcSize=50;fillColor=#bac8d3;strokeColor=#23445d;" name="infer:deduce" vertex="1" parent="T-h4fnzZas3nuQTRg1Mm-1">
          <mxGeometry x="520" y="950" width="100" height="50" as="geometry" />
        </mxCell>
        <mxCell id="O7xsHXWnGRx2EnHtFdqj-0" style="edgeStyle=orthogonalEdgeStyle;rounded=0;orthogonalLoop=1;jettySize=auto;html=1;exitX=0;exitY=0.5;exitDx=0;exitDy=0;entryX=1;entryY=0.5;entryDx=0;entryDy=0;" edge="1" parent="T-h4fnzZas3nuQTRg1Mm-1" source="T-h4fnzZas3nuQTRg1Mm-20" target="T-h4fnzZas3nuQTRg1Mm-19">
          <mxGeometry relative="1" as="geometry" />
        </mxCell>
        <mxCell id="T-h4fnzZas3nuQTRg1Mm-20" value="symbol&#xa;Fuzzy Rules" style="rectangle;fillColor=#dae8fc;strokeColor=#6c8ebf;" name="symbol" vertex="1" parent="T-h4fnzZas3nuQTRg1Mm-1">
          <mxGeometry x="700" y="950" width="100" height="50" as="geometry" />
        </mxCell>
        <mxCell id="T-h4fnzZas3nuQTRg1Mm-22" value="symbol&#xa;Diagnosis and&#xa;Treatment" style="rectangle;fillColor=#dae8fc;strokeColor=#6c8ebf;" name="symbol" vertex="1" parent="T-h4fnzZas3nuQTRg1Mm-1">
          <mxGeometry x="340" y="950" width="100" height="50" as="geometry" />
        </mxCell>
      </root>
    </mxGraphModel>
  </diagram>
</mxfile>
